<svg width="50" height="51" viewBox="0 0 50 51" fill="none" xmlns="http://www.w3.org/2000/svg">
<path d="M34.275 23.8758C33.9095 20.5509 31.7749 18.0042 29.1919 18.0086C26.3477 18.0134 24.0369 21.1095 24.0305 24.924C24.0298 25.3218 23.8312 30.591 24.63 31.5236" stroke="#F4B846" stroke-width="2.25" stroke-miterlimit="10" stroke-linecap="round"/>
<path d="M9.94952 19.8554C9.42653 20.1926 9.27448 20.889 9.60992 21.4108C9.94535 21.9327 10.6412 22.0824 11.1642 21.7452L9.94952 19.8554ZM10.5402 30.726C9.91889 30.727 9.41436 31.2316 9.41332 31.8529C9.41228 32.4742 9.91511 32.977 10.5364 32.976L10.5402 30.726ZM17.9962 32.9687C18.6175 32.9687 19.1229 32.465 19.125 31.8437C19.1271 31.2224 18.6251 30.7187 18.0038 30.7187L17.9962 32.9687ZM14.5059 18.2542L15.1133 19.1991L14.5059 18.2542ZM13.7274 18.4447L13.7049 31.8456L15.9549 31.8418L15.9774 18.4409L13.7274 18.4447ZM13.8986 17.3093L9.94952 19.8554L11.1642 21.7452L15.1133 19.1991L13.8986 17.3093ZM14.8318 30.7187L10.5402 30.726L10.5364 32.976L14.828 32.9687L14.8318 30.7187ZM14.8261 32.9687L17.9962 32.9687L18.0038 30.7187L14.8337 30.7187L14.8261 32.9687ZM15.9774 18.4409C15.9792 17.3724 14.7979 16.7294 13.8986 17.3093L15.1133 19.1991C14.5137 19.5857 13.7262 19.157 13.7274 18.4447L15.9774 18.4409Z" fill="#F4B846"/>
<path d="M24 36.5C24 43.4036 29.3726 49 36 49C42.6274 49 48 43.4036 48 36.5C48 29.5964 42.6274 24 36 24C29.3726 24 24 29.5964 24 36.5Z" stroke="black" stroke-width="2.25" stroke-miterlimit="10" stroke-linecap="round"/>
<path d="M10.0336 2.09326V7.92377M18.3445 2.09326V7.92377M26.6554 2.09326V7.92377M34.9663 2.09326V7.92377M42.9159 22.5V9.3814C42.9159 6.83055 40.8683 4.76558 38.3389 4.76558H6.66101C4.1316 4.76558 2.08398 6.83055 2.08398 9.3814V38.291C2.08398 40.8419 4.1316 42.9068 6.66101 42.9068H22.5" stroke="black" stroke-width="2.25" stroke-miterlimit="22.9256" stroke-linecap="round" stroke-linejoin="round"/>
<path d="M2.68652 12.6328H42.9162" stroke="black" stroke-width="2.25" stroke-miterlimit="22.9256"/>
<path d="M36 30V35.9219C36 36.353 36.1853 36.7631 36.5089 37.0479C37.4586 37.8836 39.5367 39.7123 41 41" stroke="#F4B846" stroke-width="2.25" stroke-miterlimit="10" stroke-linecap="round"/>
</svg>
