<svg width="49" height="49" viewBox="0 0 49 49" fill="none" xmlns="http://www.w3.org/2000/svg">
<path d="M10.0336 2.09326V7.92377M18.3445 2.09326V7.92377M26.6554 2.09326V7.92377M34.9663 2.09326V7.92377M42.9159 27V9.3814C42.9159 6.83055 40.8683 4.76558 38.3389 4.76558H6.66101C4.1316 4.76558 2.08398 6.83055 2.08398 9.3814V38.291C2.08398 40.8419 4.1316 42.9068 6.66101 42.9068H22.5" stroke="black" stroke-width="2.25" stroke-miterlimit="22.9256" stroke-linecap="round" stroke-linejoin="round"/>
<path d="M2.68652 12.6328H42.9162" stroke="black" stroke-width="2.25" stroke-miterlimit="22.9256"/>
<g clip-path="url(#clip0_21693_293452)">
<path d="M38.642 48V45.2435C36.6989 46.1295 32.5966 45.7358 29.358 43.8653H29.25C32.2727 43.4715 34.8636 42.487 36.375 40.5181C34.2159 40.1244 32.1648 39.2383 31.0852 38.4508H31.1932H31.3011C33.3523 38.1554 36.267 37.2694 37.0227 35.5959V35.4974C35.2955 35.2021 33.6761 34.513 32.7045 33.8238H32.8125H32.9205H33.0284H33.1364C34.6477 33.3316 36.0511 32.6425 37.1307 31.658L37.2386 31.5596L37.3466 31.4611L37.4545 31.3627L37.5625 31.2642C38.1023 30.772 38.4261 30.1813 38.642 29.5907C38.642 29.4922 38.642 29.4922 38.75 29.3938V29.2953C38.75 29.1969 38.75 29.0984 38.858 29.0984V29V29.0984C38.858 29.1969 38.858 29.2953 38.9659 29.2953V29.3938C38.9659 29.4922 38.9659 29.4922 39.0739 29.5907C39.8295 31.4611 41.7727 32.8394 44.0398 33.5285H44.1477H44.2557H44.3636H44.4716H44.5795H44.6875H44.7955C43.9318 34.2176 42.2045 34.9067 40.4773 35.2021V35.3005C41.125 36.9741 44.0398 37.8601 46.3068 38.1554C45.2273 39.0415 43.1761 39.829 41.017 40.2228C42.7443 42.3886 45.2273 43.2746 48.142 43.6684H48.25C45.4432 45.7358 43.392 46.7202 39.3977 45.7358" stroke="black" stroke-width="2.25" stroke-miterlimit="22.9256" stroke-linecap="round" stroke-linejoin="round"/>
</g>
<path d="M16.7489 29.9149C15.0666 30.2978 11.3783 30.1063 12.0901 29.1489C12.8018 28.1914 13.7077 27.4255 15.4548 27.0425C17.2018 26.6595 18.496 26.9149 18.3666 27.7446C18.2371 28.4468 18.496 29.5319 16.7489 29.9149Z" stroke="#F4B846" stroke-width="2.25" stroke-miterlimit="22.9256" stroke-linecap="round" stroke-linejoin="round"/>
<path d="M22.3789 33.9362C23.3495 33.9362 24.126 34.383 24.126 35.0213C24.126 35.5957 23.3495 36.1064 22.3789 36.1064C21.4083 36.1064 20.6318 35.6596 20.6318 35.0213C20.6965 34.4468 21.473 33.9362 22.3789 33.9362Z" fill="#F4B846"/>
<path d="M28.0729 29.9149C29.8199 30.2978 33.4434 30.1063 32.7317 29.1489C32.0199 28.1914 31.114 27.4255 29.367 27.0425C27.6199 26.6595 26.3258 26.9149 26.4552 27.7446C26.6493 28.4468 26.3905 29.5319 28.0729 29.9149Z" stroke="#F4B846" stroke-width="2.25" stroke-miterlimit="22.9256" stroke-linecap="round" stroke-linejoin="round"/>
<path d="M19.4667 26.0212C18.949 26.6595 18.5608 27.4893 18.302 28.5106L16.6196 34.1276C14.8078 40.4468 29.949 40.4468 28.1373 34.1276L26.5196 28.5106C26.1961 27.4893 25.8078 26.6595 25.3549 26.0212" stroke="#F4B846" stroke-width="2.25" stroke-miterlimit="22.9256" stroke-linecap="round" stroke-linejoin="round"/>
<path d="M32.732 16C32.732 17.0213 32.6026 17.9787 32.3438 18.8723C32.0849 19.766 31.6967 20.6596 31.1791 21.4255C30.6614 22.1915 30.0143 22.8936 29.3026 23.5319C28.6555 24.0426 25.8085 25.8298 25.032 25.5745C24.1908 25.3191 23.1555 25.1277 22.4438 25.1277C21.732 25.1277 20.4379 25.3191 19.8555 25.5745C19.1438 25.8936 16.1673 24.0426 15.5849 23.5319C14.8732 22.9574 14.2261 22.1915 13.7085 21.4255C13.1261 20.6596 12.7379 19.766 12.4791 18.8723C12.2202 17.9787 12.0908 16.9574 12.0908 16" stroke="#F4B846" stroke-width="2.25" stroke-miterlimit="22.9256" stroke-linecap="round" stroke-linejoin="round"/>
<path d="M16.1022 17.0851C15.5845 18.4893 14.5493 19.6383 13.1904 20.4042" stroke="#F4B846" stroke-width="2.25" stroke-miterlimit="22.9256" stroke-linecap="round" stroke-linejoin="round"/>
<path d="M18.8845 19.1277C18.2374 20.7873 17.008 22.1915 15.4551 23.0851" stroke="#F4B846" stroke-width="2.25" stroke-miterlimit="22.9256" stroke-linecap="round" stroke-linejoin="round"/>
<path d="M28.6553 17.0851C29.1729 18.4893 30.2082 19.6383 31.567 20.4042" stroke="#F4B846" stroke-width="2.25" stroke-miterlimit="22.9256" stroke-linecap="round" stroke-linejoin="round"/>
<path d="M25.9375 19.1277C26.5846 20.7873 27.814 22.1915 29.3669 23.0851" stroke="#F4B846" stroke-width="2.25" stroke-miterlimit="22.9256" stroke-linecap="round" stroke-linejoin="round"/>
<defs>
<clipPath id="clip0_21693_293452">
<rect width="23" height="23" fill="white" transform="translate(26 26)"/>
</clipPath>
</defs>
</svg>
