<svg width="51" height="52" viewBox="0 0 51 52" fill="none" xmlns="http://www.w3.org/2000/svg">
<path d="M32 31.75C32 31.3358 32.3358 31 32.75 31H41.25C41.6642 31 42 31.3358 42 31.75V43.7204C42 44.2934 41.3835 44.6547 40.8835 44.3748L37.3665 42.4052C37.1388 42.2777 36.8612 42.2777 36.6335 42.4052L33.1165 44.3748C32.6165 44.6547 32 44.2934 32 43.7204V31.75Z" fill="#F4B846"/>
<path d="M25 37.5C25 30.5964 30.3726 25 37 25C43.6274 25 49 30.5964 49 37.5C49 44.4036 43.6274 50 37 50C30.3726 50 25 44.4036 25 37.5Z" stroke="black" stroke-width="2.25" stroke-miterlimit="10" stroke-linecap="round"/>
<path d="M20.5 44H3.5C2.67157 44 2 43.3284 2 42.5V3.5C2 2.67157 2.67157 2 3.5 2H37.5C38.3284 2 39 2.67157 39 3.5V20.9512" stroke="black" stroke-width="2.25" stroke-miterlimit="10" stroke-linecap="round"/>
<path d="M14 38V28.8085M14 28.8085V11.5341C14 11.2964 13.743 11.1477 13.5369 11.2661L13.3337 11.3828C12.4676 11.8803 11.7848 12.6434 11.3862 13.5593V13.5593C11.1315 14.1447 11 14.7763 11 15.4148V24.8003C11 25.1623 11.1309 25.5121 11.3685 25.7851L14 28.8085Z" stroke="black" stroke-width="2.25" stroke-miterlimit="10" stroke-linecap="round"/>
<path d="M21 11V19.1735C21 19.8374 21.1957 20.4866 21.5626 21.0398V21.0398C21.9405 21.6098 22.4826 22.0515 23.117 22.3066L25 23.0638M25 23.0638L26.883 22.3066C27.5174 22.0515 28.0595 21.6098 28.4374 21.0398V21.0398C28.8043 20.4866 29 19.8374 29 19.1735V11M25 23.0638V28M25 11V17.3191" stroke="black" stroke-width="2.25" stroke-miterlimit="10" stroke-linecap="round"/>
</svg>
